<?xml version="1.0" encoding="utf-8"?><!-- Uploaded to: SVG Repo, www.svgrepo.com, Generator: SVG Repo Mixer Tools -->
<svg fill="#000000" width="800px" height="800px" viewBox="0 0 24 24" id="airbnb" data-name="Flat Line" xmlns="http://www.w3.org/2000/svg" class="icon flat-line"><path id="primary" d="M14,14h0a4.83,4.83,0,0,1-1.41,3.41L10,20a3.54,3.54,0,0,1-2.5,1h0A3.53,3.53,0,0,1,4,17.46H4A10.47,10.47,0,0,1,5.1,12.8l4-8A3.21,3.21,0,0,1,12,3h0a3.21,3.21,0,0,1,2.89,1.79l4,8A10.47,10.47,0,0,1,20,17.46h0A3.53,3.53,0,0,1,16.46,21h0A3.54,3.54,0,0,1,14,20l-2.55-2.55A4.83,4.83,0,0,1,10,14h0a2,2,0,0,1,2-2h0A2,2,0,0,1,14,14Z" style="fill: none; stroke: rgb(0, 0, 0); stroke-linecap: round; stroke-linejoin: round; stroke-width: 2;"></path></svg>